<svg viewBox="0 0 24 24" fill="#000000" xmlns="http://www.w3.org/2000/svg" id="Notion-Line--Streamline-Remix.svg" height="24" width="24"><desc>Notion Line Streamline Icon: https://streamlinehq.com</desc><path d="M16.2852 2.95494c-0.3569 -0.23792 -0.7841 -0.3473 -1.2114 -0.31014l-11.05925 0.96167c-0.51102 0.04444 -0.90322 0.47223 -0.90322 0.98517l0 11.57496c0 0.4087 0.13256 0.8064 0.37778 1.1334l2.76706 3.6894c0.20286 0.2705 0.52985 0.4185 0.86696 0.3926l12.85297 -0.9887c0.5152 -0.0396 0.913 -0.4692 0.913 -0.9859V6.52672c0 -0.31392 -0.1569 -0.60707 -0.4181 -0.78121l-4.1858 -2.79057Zm-1.0574 1.46095c0.0251 -0.00218 0.0502 0.00425 0.0712 0.01825l2.7458 1.83052 -10.2063 0.81651 -1.86091 -1.86091 9.25021 -0.80437Zm3.8835 14.26091 -10.72219 0.8248V8.82058L19.1113 7.9628v10.714ZM4.88911 6.64593l1.72222 1.72222 0 10.13185 -1.7 -2.2667c-0.01443 -0.0192 -0.02222 -0.0426 -0.02222 -0.0667l0 -9.52067Zm7.08949 3.47747 -1.9764 0.1295v7.5625l1.9957 -0.1308v-4.3367l3.5119 4.169 1.9763 -0.1295V9.82491l-1.9957 0.1308v4.33669l-3.5118 -4.169Z" stroke-width="1"></path></svg>