<svg viewBox="0 0 24 24" fill="#000000" xmlns="http://www.w3.org/2000/svg" id="Github-Line--Streamline-Remix.svg" height="24" width="24"><desc>Github Line Streamline Icon: https://streamlinehq.com</desc><path d="M5.88401 18.6533c-0.29997 -0.2007 -0.55814 -0.4558 -0.86011 -0.8164 -0.10917 -0.1304 -0.55107 -0.6845 -0.46579 -0.5786 -0.46278 -0.575 -0.75515 -0.8413 -1.05655 -0.9494 -0.51986 -0.1864 -0.79016 -0.759 -0.60372 -1.2788 0.18644 -0.5199 0.75901 -0.7902 1.27888 -0.6038 0.75264 0.27 1.26175 0.7348 1.94753 1.588 -0.094 -0.1169 0.33939 0.4267 0.43306 0.5386 0.19053 0.2275 0.33001 0.3653 0.43898 0.4382 0.20489 0.1372 0.58822 0.1963 1.1508 0.14 0.02356 -0.3822 0.09427 -0.7528 0.2021 -1.0953 -2.96822 -0.7254 -4.64803 -2.6406 -4.64803 -6.39609 0 -1.23886 0.36924 -2.35578 1.05801 -3.29191 -0.21767 -0.89388 -0.18484 -1.97496 0.30175 -3.19144 0.11158 -0.27897 0.34269 -0.49298 0.62939 -0.58284 0.08211 -0.02379 0.1276 -0.03437 0.20847 -0.04679 0.80289 -0.1233 1.93695 0.17032 3.41571 1.09663 0.86651 -0.20457 1.77401 -0.30836 2.68671 -0.30836 0.9117 0 1.8184 0.1036 2.6842 0.30777 1.4765 -0.93277 2.6132 -1.22628 3.4218 -1.09626 0.0847 0.01362 0.1573 0.03132 0.2177 0.05115 0.281 0.09225 0.5067 0.30413 0.6165 0.5787 0.4865 1.2162 0.5194 2.29708 0.3019 3.19084 0.6909 0.93617 1.0579 2.04488 1.0579 3.29251 0 3.75709 -1.6742 5.66509 -4.6424 6.39229 0.1249 0.415 0.1908 0.8785 0.1908 1.3801 0 0.6644 -0.0025 1.2989 -0.0072 2.0104 -0.0012 0.1902 -0.0027 0.3934 -0.0049 0.7056 0.3754 0.0828 0.6854 0.3796 0.7656 0.7808 0.1083 0.5415 -0.2429 1.0684 -0.7845 1.1767 -1.1392 0.2278 -1.9833 -0.5318 -1.9833 -1.5245 0 -0.0903 0.0007 -0.2194 0.0022 -0.4466 0.0023 -0.313 0.0037 -0.5155 0.005 -0.7051 0.0046 -0.7075 0.0071 -1.3378 0.0071 -1.9973 0 -0.6973 -0.1832 -1.1519 -0.4259 -1.3611 -0.661 -0.5698 -0.326 -1.6537 0.5413 -1.7511 2.9664 -0.3333 4.3362 -1.4822 4.3362 -4.66019 0 -0.95463 -0.3119 -1.744 -0.9131 -2.40412 -0.258 -0.28326 -0.3314 -0.689 -0.1891 -1.04472 0.1657 -0.41424 0.2364 -0.95703 0.0951 -1.61385l-0.0094 0.00266c-0.4919 0.13918 -1.1103 0.44012 -1.8586 0.94882 -0.2441 0.16588 -0.5489 0.21551 -0.8329 0.13563 -0.8203 -0.2307 -1.7019 -0.34913 -2.592 -0.34913 -0.8902 0 -1.7718 0.11843 -2.59204 0.34913 -0.28254 0.07946 -0.58572 0.03079 -0.82919 -0.13312 -0.75257 -0.50662 -1.37437 -0.80722 -1.86918 -0.94725 -0.14344 0.6532 -0.07265 1.19406 0.09257 1.60711 0.14229 0.35572 0.06883 0.76146 -0.18913 1.04472 -0.59708 0.65561 -0.91307 1.45817 -0.91307 2.40412 0 3.17189 1.37109 4.32859 4.32184 4.66019 0.8653 0.0972 1.2016 1.177 0.5445 1.7483 -0.1924 0.1674 -0.4291 0.732 -0.4291 1.3639v3.149c0 0.9863 -0.83484 1.7258 -1.95962 1.5289 -0.54402 -0.0952 -0.90785 -0.6134 -0.81265 -1.1574 0.07214 -0.4122 0.38718 -0.721 0.77228 -0.805v-0.9895c-0.91012 0.0613 -1.66185 -0.0883 -2.2544 -0.4848Z" stroke-width="1"></path></svg>