<?xml version="1.0" encoding="UTF-8"?>
<!DOCTYPE svg PUBLIC "-//W3C//DTD SVG 1.1//EN" "http://www.w3.org/Graphics/SVG/1.1/DTD/svg11.dtd">
<svg xmlns="http://www.w3.org/2000/svg" version="1.1" width="48px" height="48px" style="shape-rendering:geometricPrecision; text-rendering:geometricPrecision; image-rendering:optimizeQuality; fill-rule:evenodd; clip-rule:evenodd" xmlns:xlink="http://www.w3.org/1999/xlink">
<g><path style="opacity:0.439" fill="#000000" d="M 22.5,0.5 C 23.7773,1.69363 24.4439,3.3603 24.5,5.5C 24.1667,7.16667 23.8333,8.83333 23.5,10.5C 22.513,7.23171 22.1796,3.89838 22.5,0.5 Z"/></g>
<g><path style="opacity:0.381" fill="#000000" d="M 7.5,6.5 C 10.5031,8.00682 13.1698,10.0068 15.5,12.5C 14.635,13.5827 13.635,13.7494 12.5,13C 10.2101,11.2228 8.54341,9.05616 7.5,6.5 Z"/></g>
<g><path style="opacity:0.445" fill="#000000" d="M 37.5,6.5 C 39.0281,6.51731 39.5281,7.18398 39,8.5C 37.1422,11.4122 34.6422,12.9122 31.5,13C 33.7059,10.9633 35.7059,8.79663 37.5,6.5 Z"/></g>
<g><path style="opacity:0.484" fill="#000000" d="M 21.5,18.5 C 22.8734,18.3433 24.2068,18.51 25.5,19C 29.1667,22 32.8333,25 36.5,28C 37.4061,29.6995 37.7394,31.5328 37.5,33.5C 36.325,33.281 35.325,33.6143 34.5,34.5C 39.8326,43.1584 37.4993,46.8251 27.5,45.5C 26.3995,43.3584 25.3995,41.1917 24.5,39C 22.7749,39.4087 21.1082,39.2421 19.5,38.5C 19.1667,37.8333 18.8333,37.1667 18.5,36.5C 19.5025,30.4703 20.5025,24.4703 21.5,18.5 Z M 22.5,20.5 C 27.2861,23.7386 31.9527,27.2386 36.5,31C 34.522,31.4807 33.1887,32.6473 32.5,34.5C 33.3677,37.0664 34.3677,39.5664 35.5,42C 34.0001,43.1145 32.3334,43.9479 30.5,44.5C 28.3957,41.7203 26.5624,38.7203 25,35.5C 23.561,37.0139 22.061,37.3473 20.5,36.5C 21.5307,31.2251 22.1974,25.8918 22.5,20.5 Z"/></g>
<g><path style="opacity:0.438" fill="#000000" d="M 1.5,21.5 C 4.89838,21.1796 8.23171,21.513 11.5,22.5C 9.83333,22.8333 8.16667,23.1667 6.5,23.5C 4.3603,23.4439 2.69363,22.7773 1.5,21.5 Z"/></g>
<g><path style="opacity:0.438" fill="#000000" d="M 35.5,21.5 C 38.8984,21.1796 42.2317,21.513 45.5,22.5C 43.8333,22.8333 42.1667,23.1667 40.5,23.5C 38.3603,23.4439 36.6936,22.7773 35.5,21.5 Z"/></g>
<g><path style="opacity:0.445" fill="#000000" d="M 13.5,30.5 C 15.0281,30.5173 15.5281,31.184 15,32.5C 13.1422,35.4122 10.6422,36.9122 7.5,37C 9.70587,34.9633 11.7059,32.7966 13.5,30.5 Z"/></g>
</svg>
